<svg xmlns="http://www.w3.org/2000/svg" xmlns:xlink="http://www.w3.org/1999/xlink" version="1.1" width="256" height="256" viewBox="0 0 256 256" xml:space="preserve">

<defs>
</defs>
<g style="stroke: none; stroke-width: 0; stroke-dasharray: none; stroke-linecap: butt; stroke-linejoin: miter; stroke-miterlimit: 10; fill: none; fill-rule: nonzero; opacity: 1;" transform="translate(1.4065934065934016 1.4065934065934016) scale(2.81 2.81)" >
	<path d="M 69.245 38.312 c -1.104 0 -2 0.896 -2 2 v 6.505 c 0 12.266 -9.979 22.244 -22.245 22.244 s -22.245 -9.979 -22.245 -22.244 v -6.505 c 0 -1.104 -0.896 -2 -2 -2 s -2 0.896 -2 2 v 6.505 c 0 13.797 10.705 25.134 24.245 26.16 V 86 h -9.126 c -1.104 0 -2 0.896 -2 2 s 0.896 2 2 2 h 22.252 c 1.104 0 2 -0.896 2 -2 s -0.896 -2 -2 -2 H 47 V 72.978 c 13.54 -1.026 24.245 -12.363 24.245 -26.16 v -6.505 C 71.245 39.208 70.35 38.312 69.245 38.312 z" style="stroke: none; stroke-width: 1; stroke-dasharray: none; stroke-linecap: butt; stroke-linejoin: miter; stroke-miterlimit: 10; fill: rgb(0,0,0); fill-rule: nonzero; opacity: 1;" transform=" matrix(1 0 0 1 0 0) " stroke-linecap="round" />
	<path d="M 51.21 41.631 c 0 -1.104 0.896 -2 2 -2 h 7.172 v -7.727 H 50.278 c -1.104 0 -2 -0.896 -2 -2 s 0.896 -2 2 -2 h 10.104 v -7.728 H 53.21 c -1.104 0 -2 -0.896 -2 -2 s 0.896 -2 2 -2 h 7.172 v -0.795 C 60.382 6.9 53.481 0 45 0 S 29.618 6.9 29.618 15.382 v 0.795 h 7.172 c 1.104 0 2 0.896 2 2 s -0.896 2 -2 2 h -7.172 v 7.728 h 9.126 c 1.104 0 2 0.896 2 2 s -0.896 2 -2 2 h -9.126 v 7.727 h 7.172 c 1.104 0 2 0.896 2 2 s -0.896 2 -2 2 h -7.172 v 0.795 c 0 8.482 6.9 15.382 15.382 15.382 s 15.382 -6.9 15.382 -15.382 v -0.795 H 53.21 C 52.105 43.631 51.21 42.736 51.21 41.631 z" style="stroke: none; stroke-width: 1; stroke-dasharray: none; stroke-linecap: butt; stroke-linejoin: miter; stroke-miterlimit: 10; fill: rgb(0,0,0); fill-rule: nonzero; opacity: 1;" transform=" matrix(1 0 0 1 0 0) " stroke-linecap="round" />
	<path d="M 69.245 33.836 c -1.104 0 -2 -0.896 -2 -2 V 18.177 c 0 -1.104 0.896 -2 2 -2 s 2 0.896 2 2 v 13.659 C 71.245 32.94 70.35 33.836 69.245 33.836 z" style="stroke: none; stroke-width: 1; stroke-dasharray: none; stroke-linecap: butt; stroke-linejoin: miter; stroke-miterlimit: 10; fill: rgb(0,0,0); fill-rule: nonzero; opacity: 1;" transform=" matrix(1 0 0 1 0 0) " stroke-linecap="round" />
	<path d="M 20.755 33.836 c -1.104 0 -2 -0.896 -2 -2 V 18.177 c 0 -1.104 0.896 -2 2 -2 s 2 0.896 2 2 v 13.659 C 22.755 32.94 21.86 33.836 20.755 33.836 z" style="stroke: none; stroke-width: 1; stroke-dasharray: none; stroke-linecap: butt; stroke-linejoin: miter; stroke-miterlimit: 10; fill: rgb(0,0,0); fill-rule: nonzero; opacity: 1;" transform=" matrix(1 0 0 1 0 0) " stroke-linecap="round" />
	<path d="M 10.982 30.381 c -1.104 0 -2 -0.896 -2 -2 v -6.841 c 0 -1.104 0.896 -2 2 -2 s 2 0.896 2 2 v 6.841 C 12.982 29.486 12.087 30.381 10.982 30.381 z" style="stroke: none; stroke-width: 1; stroke-dasharray: none; stroke-linecap: butt; stroke-linejoin: miter; stroke-miterlimit: 10; fill: rgb(0,0,0); fill-rule: nonzero; opacity: 1;" transform=" matrix(1 0 0 1 0 0) " stroke-linecap="round" />
	<path d="M 79.018 30.472 c -1.104 0 -2 -0.896 -2 -2 v -6.841 c 0 -1.104 0.896 -2 2 -2 s 2 0.896 2 2 v 6.841 C 81.018 29.577 80.122 30.472 79.018 30.472 z" style="stroke: none; stroke-width: 1; stroke-dasharray: none; stroke-linecap: butt; stroke-linejoin: miter; stroke-miterlimit: 10; fill: rgb(0,0,0); fill-rule: nonzero; opacity: 1;" transform=" matrix(1 0 0 1 0 0) " stroke-linecap="round" />
</g>
</svg>