<svg xmlns="http://www.w3.org/2000/svg" xmlns:xlink="http://www.w3.org/1999/xlink" version="1.1" width="256" height="256" viewBox="0 0 256 256" xml:space="preserve">

<defs>
</defs>
<g style="stroke: none; stroke-width: 0; stroke-dasharray: none; stroke-linecap: butt; stroke-linejoin: miter; stroke-miterlimit: 10; fill: none; fill-rule: nonzero; opacity: 1;" transform="translate(1.4065934065934016 1.4065934065934016) scale(2.81 2.81)" >
	<path d="M 87.265 24.707 c -1.713 -1.117 -3.853 -1.293 -5.726 -0.468 L 67.021 30.63 v -3.313 c 0 -5.108 -4.155 -9.263 -9.264 -9.263 H 9.263 C 4.155 18.053 0 22.208 0 27.316 v 35.367 c 0 5.108 4.155 9.264 9.263 9.264 h 48.494 c 5.108 0 9.264 -4.155 9.264 -9.264 V 59.37 l 14.519 6.391 c 0.781 0.344 1.609 0.514 2.434 0.514 c 1.15 0 2.294 -0.331 3.292 -0.982 C 88.978 64.176 90 62.287 90 60.242 V 29.758 C 90 27.713 88.978 25.825 87.265 24.707 z M 57.757 65.947 H 9.263 C 7.464 65.947 6 64.483 6 62.684 V 27.316 c 0 -1.799 1.464 -3.263 3.263 -3.263 h 48.494 c 1.8 0 3.264 1.464 3.264 3.263 v 7.951 c 0 0.003 0 0.006 0 0.009 v 19.445 c 0 0.004 0 0.008 0 0.011 v 7.951 C 61.021 64.483 59.557 65.947 57.757 65.947 z M 83.957 60.27 l -16.937 -7.456 V 37.19 L 84 29.758 L 83.957 60.27 z" style="stroke: none; stroke-width: 1; stroke-dasharray: none; stroke-linecap: butt; stroke-linejoin: miter; stroke-miterlimit: 10; fill: rgb(0,0,0); fill-rule: nonzero; opacity: 1;" transform=" matrix(1 0 0 1 0 0) " stroke-linecap="round" />
	<path d="M 27.498 59.813 c -0.844 0 -1.688 -0.212 -2.449 -0.638 c -1.583 -0.886 -2.566 -2.563 -2.566 -4.377 V 35.202 c 0 -1.813 0.983 -3.491 2.565 -4.376 c 1.582 -0.886 3.525 -0.848 5.073 0.101 l 15.97 9.799 c 1.498 0.919 2.392 2.518 2.392 4.275 c 0 1.758 -0.894 3.355 -2.392 4.274 l -15.969 9.799 l 0 0 C 29.319 59.566 28.409 59.813 27.498 59.813 z M 28.553 56.517 h 0.01 H 28.553 z M 28.483 36.96 v 16.08 L 41.585 45 L 28.483 36.96 z" style="stroke: none; stroke-width: 1; stroke-dasharray: none; stroke-linecap: butt; stroke-linejoin: miter; stroke-miterlimit: 10; fill: rgb(0,0,0); fill-rule: nonzero; opacity: 1;" transform=" matrix(1 0 0 1 0 0) " stroke-linecap="round" />
</g>
</svg>